<?xml version="1.0" encoding="UTF-8"?>
<svg xmlns="http://www.w3.org/2000/svg" xmlns:xlink="http://www.w3.org/1999/xlink" width="363" height="262" viewBox="0 0 363 262">
<defs>
<g>
<g id="glyph-0-0">
<path d="M 0.4375 -3.921875 C 0.4375 -4.828125 0.570312 -5.609375 0.84375 -6.265625 C 1.113281 -6.921875 1.476562 -7.410156 1.9375 -7.734375 C 2.289062 -7.984375 2.65625 -8.109375 3.03125 -8.109375 C 3.632812 -8.109375 4.179688 -7.796875 4.671875 -7.171875 C 5.273438 -6.410156 5.578125 -5.367188 5.578125 -4.046875 C 5.578125 -3.128906 5.441406 -2.347656 5.171875 -1.703125 C 4.910156 -1.054688 4.570312 -0.585938 4.15625 -0.296875 C 3.75 -0.00390625 3.351562 0.140625 2.96875 0.140625 C 2.207031 0.140625 1.578125 -0.304688 1.078125 -1.203125 C 0.648438 -1.953125 0.4375 -2.859375 0.4375 -3.921875 Z M 1.578125 -3.78125 C 1.578125 -2.6875 1.710938 -1.796875 1.984375 -1.109375 C 2.210938 -0.523438 2.546875 -0.234375 2.984375 -0.234375 C 3.191406 -0.234375 3.410156 -0.328125 3.640625 -0.515625 C 3.867188 -0.703125 4.039062 -1.019531 4.15625 -1.46875 C 4.332031 -2.132812 4.421875 -3.082031 4.421875 -4.3125 C 4.421875 -5.21875 4.328125 -5.972656 4.140625 -6.578125 C 4.003906 -7.023438 3.820312 -7.34375 3.59375 -7.53125 C 3.4375 -7.65625 3.242188 -7.71875 3.015625 -7.71875 C 2.753906 -7.71875 2.519531 -7.597656 2.3125 -7.359375 C 2.03125 -7.035156 1.835938 -6.523438 1.734375 -5.828125 C 1.628906 -5.140625 1.578125 -4.457031 1.578125 -3.78125 Z M 1.578125 -3.78125 "/>
</g>
<g id="glyph-0-1">
<path d="M 1.5 -1.140625 C 1.6875 -1.140625 1.84375 -1.070312 1.96875 -0.9375 C 2.09375 -0.8125 2.15625 -0.660156 2.15625 -0.484375 C 2.15625 -0.304688 2.085938 -0.148438 1.953125 -0.015625 C 1.828125 0.109375 1.675781 0.171875 1.5 0.171875 C 1.320312 0.171875 1.164062 0.109375 1.03125 -0.015625 C 0.90625 -0.148438 0.84375 -0.304688 0.84375 -0.484375 C 0.84375 -0.671875 0.90625 -0.828125 1.03125 -0.953125 C 1.164062 -1.078125 1.320312 -1.140625 1.5 -1.140625 Z M 1.5 -1.140625 "/>
</g>
<g id="glyph-0-2">
<path d="M 5.5 -1.53125 L 4.953125 0 L 0.265625 0 L 0.265625 -0.21875 C 1.640625 -1.476562 2.609375 -2.503906 3.171875 -3.296875 C 3.734375 -4.097656 4.015625 -4.828125 4.015625 -5.484375 C 4.015625 -5.984375 3.859375 -6.394531 3.546875 -6.71875 C 3.242188 -7.050781 2.875 -7.21875 2.4375 -7.21875 C 2.050781 -7.21875 1.703125 -7.101562 1.390625 -6.875 C 1.078125 -6.644531 0.847656 -6.304688 0.703125 -5.859375 L 0.484375 -5.859375 C 0.585938 -6.585938 0.835938 -7.144531 1.234375 -7.53125 C 1.640625 -7.914062 2.144531 -8.109375 2.75 -8.109375 C 3.394531 -8.109375 3.929688 -7.898438 4.359375 -7.484375 C 4.796875 -7.078125 5.015625 -6.59375 5.015625 -6.03125 C 5.015625 -5.625 4.921875 -5.21875 4.734375 -4.8125 C 4.441406 -4.1875 3.972656 -3.519531 3.328125 -2.8125 C 2.359375 -1.75 1.75 -1.109375 1.5 -0.890625 L 3.578125 -0.890625 C 4.003906 -0.890625 4.300781 -0.90625 4.46875 -0.9375 C 4.632812 -0.96875 4.785156 -1.03125 4.921875 -1.125 C 5.066406 -1.21875 5.1875 -1.351562 5.28125 -1.53125 Z M 5.5 -1.53125 "/>
</g>
<g id="glyph-0-3">
<path d="M 5.578125 -2.9375 L 5.578125 -2.09375 L 4.515625 -2.09375 L 4.515625 0 L 3.546875 0 L 3.546875 -2.09375 L 0.1875 -2.09375 L 0.1875 -2.84375 L 3.875 -8.109375 L 4.515625 -8.109375 L 4.515625 -2.9375 Z M 3.546875 -2.9375 L 3.546875 -6.875 L 0.765625 -2.9375 Z M 3.546875 -2.9375 "/>
</g>
<g id="glyph-0-4">
<path d="M 5.375 -8.109375 L 5.375 -7.890625 C 4.863281 -7.835938 4.441406 -7.734375 4.109375 -7.578125 C 3.785156 -7.429688 3.460938 -7.195312 3.140625 -6.875 C 2.828125 -6.5625 2.566406 -6.207031 2.359375 -5.8125 C 2.148438 -5.425781 1.972656 -4.96875 1.828125 -4.4375 C 2.390625 -4.820312 2.957031 -5.015625 3.53125 -5.015625 C 4.070312 -5.015625 4.539062 -4.796875 4.9375 -4.359375 C 5.332031 -3.921875 5.53125 -3.359375 5.53125 -2.671875 C 5.53125 -2.003906 5.332031 -1.398438 4.9375 -0.859375 C 4.445312 -0.191406 3.804688 0.140625 3.015625 0.140625 C 2.472656 0.140625 2.007812 -0.0390625 1.625 -0.40625 C 0.882812 -1.101562 0.515625 -2.007812 0.515625 -3.125 C 0.515625 -3.832031 0.65625 -4.503906 0.9375 -5.140625 C 1.226562 -5.785156 1.632812 -6.351562 2.15625 -6.84375 C 2.6875 -7.34375 3.191406 -7.675781 3.671875 -7.84375 C 4.160156 -8.019531 4.617188 -8.109375 5.046875 -8.109375 Z M 1.734375 -4.015625 C 1.660156 -3.484375 1.625 -3.054688 1.625 -2.734375 C 1.625 -2.359375 1.691406 -1.945312 1.828125 -1.5 C 1.972656 -1.0625 2.179688 -0.71875 2.453125 -0.46875 C 2.648438 -0.28125 2.894531 -0.1875 3.1875 -0.1875 C 3.519531 -0.1875 3.820312 -0.347656 4.09375 -0.671875 C 4.363281 -0.992188 4.5 -1.453125 4.5 -2.046875 C 4.5 -2.710938 4.363281 -3.285156 4.09375 -3.765625 C 3.832031 -4.253906 3.457031 -4.5 2.96875 -4.5 C 2.820312 -4.5 2.660156 -4.46875 2.484375 -4.40625 C 2.316406 -4.34375 2.066406 -4.210938 1.734375 -4.015625 Z M 1.734375 -4.015625 "/>
</g>
<g id="glyph-0-5">
<path d="M 2.296875 -4 C 1.671875 -4.519531 1.265625 -4.9375 1.078125 -5.25 C 0.898438 -5.5625 0.8125 -5.882812 0.8125 -6.21875 C 0.8125 -6.726562 1.007812 -7.171875 1.40625 -7.546875 C 1.8125 -7.921875 2.34375 -8.109375 3 -8.109375 C 3.644531 -8.109375 4.160156 -7.929688 4.546875 -7.578125 C 4.941406 -7.234375 5.140625 -6.84375 5.140625 -6.40625 C 5.140625 -6.101562 5.03125 -5.796875 4.8125 -5.484375 C 4.601562 -5.179688 4.164062 -4.820312 3.5 -4.40625 C 4.1875 -3.875 4.640625 -3.453125 4.859375 -3.140625 C 5.160156 -2.742188 5.3125 -2.328125 5.3125 -1.890625 C 5.3125 -1.328125 5.097656 -0.847656 4.671875 -0.453125 C 4.242188 -0.0546875 3.6875 0.140625 3 0.140625 C 2.238281 0.140625 1.648438 -0.09375 1.234375 -0.5625 C 0.898438 -0.945312 0.734375 -1.363281 0.734375 -1.8125 C 0.734375 -2.164062 0.847656 -2.515625 1.078125 -2.859375 C 1.316406 -3.203125 1.722656 -3.582031 2.296875 -4 Z M 3.21875 -4.625 C 3.6875 -5.050781 3.984375 -5.382812 4.109375 -5.625 C 4.234375 -5.875 4.296875 -6.148438 4.296875 -6.453125 C 4.296875 -6.867188 4.179688 -7.191406 3.953125 -7.421875 C 3.722656 -7.648438 3.410156 -7.765625 3.015625 -7.765625 C 2.617188 -7.765625 2.296875 -7.648438 2.046875 -7.421875 C 1.796875 -7.191406 1.671875 -6.921875 1.671875 -6.609375 C 1.671875 -6.410156 1.71875 -6.207031 1.8125 -6 C 1.914062 -5.800781 2.066406 -5.609375 2.265625 -5.421875 Z M 2.578125 -3.78125 C 2.253906 -3.507812 2.015625 -3.210938 1.859375 -2.890625 C 1.703125 -2.566406 1.625 -2.21875 1.625 -1.84375 C 1.625 -1.332031 1.757812 -0.925781 2.03125 -0.625 C 2.3125 -0.320312 2.664062 -0.171875 3.09375 -0.171875 C 3.507812 -0.171875 3.84375 -0.289062 4.09375 -0.53125 C 4.351562 -0.769531 4.484375 -1.0625 4.484375 -1.40625 C 4.484375 -1.6875 4.410156 -1.9375 4.265625 -2.15625 C 3.984375 -2.570312 3.421875 -3.113281 2.578125 -3.78125 Z M 2.578125 -3.78125 "/>
</g>
<g id="glyph-0-6">
<path d="M 1.40625 -7.171875 L 3.34375 -8.109375 L 3.53125 -8.109375 L 3.53125 -1.40625 C 3.53125 -0.957031 3.546875 -0.675781 3.578125 -0.5625 C 3.617188 -0.457031 3.695312 -0.375 3.8125 -0.3125 C 3.9375 -0.257812 4.175781 -0.226562 4.53125 -0.21875 L 4.53125 0 L 1.546875 0 L 1.546875 -0.21875 C 1.921875 -0.226562 2.160156 -0.257812 2.265625 -0.3125 C 2.378906 -0.375 2.457031 -0.453125 2.5 -0.546875 C 2.539062 -0.640625 2.5625 -0.925781 2.5625 -1.40625 L 2.5625 -5.6875 C 2.5625 -6.269531 2.546875 -6.640625 2.515625 -6.796875 C 2.484375 -6.921875 2.429688 -7.015625 2.359375 -7.078125 C 2.285156 -7.140625 2.195312 -7.171875 2.09375 -7.171875 C 1.945312 -7.171875 1.75 -7.109375 1.5 -6.984375 Z M 1.40625 -7.171875 "/>
</g>
<g id="glyph-1-0">
<path d="M 1.03125 -0.375 C 1.1875 -0.257812 1.40625 -0.203125 1.6875 -0.203125 C 1.96875 -0.203125 2.210938 -0.332031 2.421875 -0.59375 C 2.628906 -0.863281 2.769531 -1.15625 2.84375 -1.46875 L 3.453125 -3.796875 C 3.546875 -4.222656 3.59375 -4.515625 3.59375 -4.671875 C 3.59375 -4.890625 3.53125 -5.082031 3.40625 -5.25 C 3.28125 -5.414062 3.109375 -5.5 2.890625 -5.5 C 2.609375 -5.5 2.34375 -5.410156 2.09375 -5.234375 C 1.851562 -5.054688 1.648438 -4.832031 1.484375 -4.5625 C 1.316406 -4.300781 1.203125 -4.03125 1.140625 -3.75 C 1.117188 -3.695312 1.082031 -3.671875 1.03125 -3.671875 L 0.875 -3.671875 C 0.800781 -3.671875 0.765625 -3.710938 0.765625 -3.796875 L 0.765625 -3.828125 C 0.847656 -4.148438 0.992188 -4.46875 1.203125 -4.78125 C 1.410156 -5.09375 1.660156 -5.34375 1.953125 -5.53125 C 2.253906 -5.726562 2.578125 -5.828125 2.921875 -5.828125 C 3.242188 -5.828125 3.535156 -5.738281 3.796875 -5.5625 C 4.054688 -5.394531 4.238281 -5.164062 4.34375 -4.875 C 4.5 -5.144531 4.691406 -5.367188 4.921875 -5.546875 C 5.160156 -5.734375 5.414062 -5.828125 5.6875 -5.828125 C 5.875 -5.828125 6.066406 -5.796875 6.265625 -5.734375 C 6.460938 -5.671875 6.625 -5.566406 6.75 -5.421875 C 6.875 -5.285156 6.9375 -5.113281 6.9375 -4.90625 C 6.9375 -4.6875 6.863281 -4.492188 6.71875 -4.328125 C 6.582031 -4.171875 6.398438 -4.09375 6.171875 -4.09375 C 6.035156 -4.09375 5.914062 -4.132812 5.8125 -4.21875 C 5.71875 -4.3125 5.671875 -4.429688 5.671875 -4.578125 C 5.671875 -4.753906 5.734375 -4.910156 5.859375 -5.046875 C 5.992188 -5.191406 6.148438 -5.28125 6.328125 -5.3125 C 6.160156 -5.4375 5.941406 -5.5 5.671875 -5.5 C 5.378906 -5.5 5.128906 -5.363281 4.921875 -5.09375 C 4.710938 -4.832031 4.566406 -4.539062 4.484375 -4.21875 L 3.90625 -1.890625 C 3.8125 -1.535156 3.765625 -1.242188 3.765625 -1.015625 C 3.765625 -0.796875 3.828125 -0.601562 3.953125 -0.4375 C 4.078125 -0.28125 4.25 -0.203125 4.46875 -0.203125 C 4.875 -0.203125 5.238281 -0.382812 5.5625 -0.75 C 5.882812 -1.113281 6.097656 -1.507812 6.203125 -1.9375 C 6.222656 -1.988281 6.257812 -2.015625 6.3125 -2.015625 L 6.46875 -2.015625 C 6.507812 -2.015625 6.539062 -2.003906 6.5625 -1.984375 C 6.582031 -1.960938 6.59375 -1.9375 6.59375 -1.90625 C 6.59375 -1.894531 6.585938 -1.878906 6.578125 -1.859375 C 6.453125 -1.335938 6.1875 -0.875 5.78125 -0.46875 C 5.382812 -0.0625 4.9375 0.140625 4.4375 0.140625 C 4.113281 0.140625 3.820312 0.0546875 3.5625 -0.109375 C 3.300781 -0.285156 3.117188 -0.519531 3.015625 -0.8125 C 2.867188 -0.5625 2.675781 -0.335938 2.4375 -0.140625 C 2.195312 0.046875 1.9375 0.140625 1.65625 0.140625 C 1.46875 0.140625 1.273438 0.109375 1.078125 0.046875 C 0.878906 -0.015625 0.71875 -0.113281 0.59375 -0.25 C 0.46875 -0.394531 0.40625 -0.570312 0.40625 -0.78125 C 0.40625 -0.988281 0.476562 -1.175781 0.625 -1.34375 C 0.769531 -1.507812 0.945312 -1.59375 1.15625 -1.59375 C 1.300781 -1.59375 1.421875 -1.546875 1.515625 -1.453125 C 1.617188 -1.367188 1.671875 -1.257812 1.671875 -1.125 C 1.671875 -0.9375 1.609375 -0.773438 1.484375 -0.640625 C 1.367188 -0.503906 1.21875 -0.414062 1.03125 -0.375 Z M 1.03125 -0.375 "/>
</g>
<g id="glyph-2-0">
<path d="M 2.484375 -0.375 C 2.429688 -0.375 2.394531 -0.375 2.375 -0.375 L -2.890625 -1.6875 C -3.367188 -1.8125 -3.832031 -2.023438 -4.28125 -2.328125 C -4.738281 -2.628906 -5.109375 -2.992188 -5.390625 -3.421875 C -5.679688 -3.859375 -5.828125 -4.316406 -5.828125 -4.796875 C -5.828125 -5.171875 -5.726562 -5.5 -5.53125 -5.78125 C -5.332031 -6.070312 -5.070312 -6.289062 -4.75 -6.4375 C -4.425781 -6.582031 -4.070312 -6.65625 -3.6875 -6.65625 C -3.257812 -6.65625 -2.816406 -6.566406 -2.359375 -6.390625 C -1.898438 -6.210938 -1.484375 -5.96875 -1.109375 -5.65625 C -0.734375 -5.351562 -0.429688 -5.003906 -0.203125 -4.609375 C 0.0234375 -4.210938 0.140625 -3.796875 0.140625 -3.359375 C 0.140625 -3.097656 0.0664062 -2.851562 -0.078125 -2.625 C -0.234375 -2.394531 -0.4375 -2.21875 -0.6875 -2.09375 L 2.4375 -1.3125 C 2.5625 -1.28125 2.660156 -1.210938 2.734375 -1.109375 C 2.804688 -1.003906 2.84375 -0.890625 2.84375 -0.765625 C 2.84375 -0.660156 2.8125 -0.566406 2.75 -0.484375 C 2.6875 -0.410156 2.597656 -0.375 2.484375 -0.375 Z M -0.203125 -3.375 C -0.203125 -3.84375 -0.441406 -4.25 -0.921875 -4.59375 C -1.398438 -4.945312 -1.960938 -5.210938 -2.609375 -5.390625 C -3.253906 -5.578125 -3.800781 -5.671875 -4.25 -5.671875 C -4.582031 -5.671875 -4.875 -5.597656 -5.125 -5.453125 C -5.375 -5.304688 -5.5 -5.078125 -5.5 -4.765625 C -5.5 -4.378906 -5.351562 -4.039062 -5.0625 -3.75 C -4.769531 -3.457031 -4.425781 -3.222656 -4.03125 -3.046875 C -3.644531 -2.867188 -3.238281 -2.726562 -2.8125 -2.625 L -1.328125 -2.25 C -1.015625 -2.3125 -0.75 -2.4375 -0.53125 -2.625 C -0.3125 -2.820312 -0.203125 -3.070312 -0.203125 -3.375 Z M -0.203125 -3.375 "/>
</g>
<g id="glyph-3-0">
<path d="M 0.328125 0 L 0.328125 -0.375 C 1.066406 -0.375 1.4375 -0.488281 1.4375 -0.71875 L 1.4375 -6.65625 C 1.4375 -6.882812 1.066406 -7 0.328125 -7 L 0.328125 -7.375 L 6.4375 -7.375 L 6.734375 -4.90625 L 6.421875 -4.90625 C 6.347656 -5.53125 6.238281 -5.976562 6.09375 -6.25 C 5.957031 -6.53125 5.738281 -6.722656 5.4375 -6.828125 C 5.132812 -6.941406 4.675781 -7 4.0625 -7 L 3 -7 C 2.863281 -7 2.757812 -6.992188 2.6875 -6.984375 C 2.625 -6.972656 2.566406 -6.941406 2.515625 -6.890625 C 2.472656 -6.835938 2.453125 -6.757812 2.453125 -6.65625 L 2.453125 -4.015625 L 3.25 -4.015625 C 3.613281 -4.015625 3.882812 -4.046875 4.0625 -4.109375 C 4.25 -4.171875 4.375 -4.285156 4.4375 -4.453125 C 4.507812 -4.628906 4.546875 -4.90625 4.546875 -5.28125 L 4.859375 -5.28125 L 4.859375 -2.375 L 4.546875 -2.375 C 4.546875 -2.738281 4.507812 -3.007812 4.4375 -3.1875 C 4.375 -3.363281 4.25 -3.484375 4.0625 -3.546875 C 3.882812 -3.609375 3.613281 -3.640625 3.25 -3.640625 L 2.453125 -3.640625 L 2.453125 -0.71875 C 2.453125 -0.5625 2.492188 -0.460938 2.578125 -0.421875 C 2.671875 -0.390625 2.8125 -0.375 3 -0.375 L 4.140625 -0.375 C 4.640625 -0.375 5.039062 -0.410156 5.34375 -0.484375 C 5.65625 -0.566406 5.894531 -0.703125 6.0625 -0.890625 C 6.238281 -1.078125 6.375 -1.316406 6.46875 -1.609375 C 6.5625 -1.898438 6.648438 -2.304688 6.734375 -2.828125 L 7.03125 -2.828125 L 6.578125 0 Z M 0.328125 0 "/>
</g>
<g id="glyph-3-1">
<path d="M 0.125 0 L 0.125 -0.375 C 0.40625 -0.375 0.664062 -0.425781 0.90625 -0.53125 C 1.144531 -0.644531 1.351562 -0.804688 1.53125 -1.015625 L 2.5 -2.265625 L 1.234375 -3.921875 C 1.097656 -4.085938 0.957031 -4.1875 0.8125 -4.21875 C 0.664062 -4.257812 0.457031 -4.28125 0.1875 -4.28125 L 0.1875 -4.65625 L 2.4375 -4.65625 L 2.4375 -4.28125 C 2.332031 -4.28125 2.238281 -4.257812 2.15625 -4.21875 C 2.082031 -4.175781 2.046875 -4.113281 2.046875 -4.03125 C 2.046875 -4 2.054688 -3.960938 2.078125 -3.921875 L 2.9375 -2.796875 L 3.578125 -3.640625 C 3.671875 -3.742188 3.71875 -3.847656 3.71875 -3.953125 C 3.71875 -4.035156 3.6875 -4.109375 3.625 -4.171875 C 3.570312 -4.242188 3.5 -4.28125 3.40625 -4.28125 L 3.40625 -4.65625 L 5.390625 -4.65625 L 5.390625 -4.28125 C 5.109375 -4.28125 4.84375 -4.222656 4.59375 -4.109375 C 4.351562 -4.003906 4.148438 -3.847656 3.984375 -3.640625 L 3.125 -2.546875 L 4.515625 -0.71875 C 4.648438 -0.5625 4.789062 -0.460938 4.9375 -0.421875 C 5.082031 -0.390625 5.296875 -0.375 5.578125 -0.375 L 5.578125 0 L 3.328125 0 L 3.328125 -0.375 C 3.410156 -0.375 3.492188 -0.394531 3.578125 -0.4375 C 3.660156 -0.476562 3.703125 -0.539062 3.703125 -0.625 C 3.703125 -0.65625 3.691406 -0.6875 3.671875 -0.71875 L 2.703125 -2.015625 L 1.921875 -1.015625 C 1.835938 -0.921875 1.796875 -0.816406 1.796875 -0.703125 C 1.796875 -0.609375 1.828125 -0.53125 1.890625 -0.46875 C 1.953125 -0.40625 2.023438 -0.375 2.109375 -0.375 L 2.109375 0 Z M 0.125 0 "/>
</g>
<g id="glyph-3-2">
<path d="M 0.4375 -1.0625 C 0.4375 -1.488281 0.601562 -1.835938 0.9375 -2.109375 C 1.269531 -2.378906 1.671875 -2.566406 2.140625 -2.671875 C 2.617188 -2.785156 3.070312 -2.84375 3.5 -2.84375 L 3.5 -3.28125 C 3.5 -3.488281 3.453125 -3.691406 3.359375 -3.890625 C 3.265625 -4.085938 3.128906 -4.25 2.953125 -4.375 C 2.785156 -4.5 2.601562 -4.5625 2.40625 -4.5625 C 1.925781 -4.5625 1.5625 -4.453125 1.3125 -4.234375 C 1.445312 -4.234375 1.554688 -4.179688 1.640625 -4.078125 C 1.734375 -3.972656 1.78125 -3.851562 1.78125 -3.71875 C 1.78125 -3.570312 1.726562 -3.445312 1.625 -3.34375 C 1.519531 -3.238281 1.398438 -3.1875 1.265625 -3.1875 C 1.117188 -3.1875 0.992188 -3.238281 0.890625 -3.34375 C 0.796875 -3.445312 0.75 -3.570312 0.75 -3.71875 C 0.75 -4.09375 0.921875 -4.375 1.265625 -4.5625 C 1.609375 -4.75 1.988281 -4.84375 2.40625 -4.84375 C 2.695312 -4.84375 2.988281 -4.78125 3.28125 -4.65625 C 3.570312 -4.53125 3.8125 -4.347656 4 -4.109375 C 4.1875 -3.878906 4.28125 -3.613281 4.28125 -3.3125 L 4.28125 -0.875 C 4.28125 -0.738281 4.3125 -0.609375 4.375 -0.484375 C 4.4375 -0.367188 4.53125 -0.3125 4.65625 -0.3125 C 4.769531 -0.3125 4.859375 -0.367188 4.921875 -0.484375 C 4.984375 -0.609375 5.015625 -0.738281 5.015625 -0.875 L 5.015625 -1.5625 L 5.328125 -1.5625 L 5.328125 -0.875 C 5.328125 -0.707031 5.285156 -0.550781 5.203125 -0.40625 C 5.117188 -0.257812 5.003906 -0.144531 4.859375 -0.0625 C 4.710938 0.0195312 4.554688 0.0625 4.390625 0.0625 C 4.179688 0.0625 4 -0.015625 3.84375 -0.171875 C 3.695312 -0.335938 3.613281 -0.535156 3.59375 -0.765625 C 3.457031 -0.492188 3.257812 -0.273438 3 -0.109375 C 2.738281 0.046875 2.460938 0.125 2.171875 0.125 C 1.898438 0.125 1.628906 0.0820312 1.359375 0 C 1.097656 -0.0820312 0.878906 -0.207031 0.703125 -0.375 C 0.523438 -0.550781 0.4375 -0.78125 0.4375 -1.0625 Z M 1.3125 -1.0625 C 1.3125 -0.8125 1.398438 -0.597656 1.578125 -0.421875 C 1.765625 -0.242188 1.988281 -0.15625 2.25 -0.15625 C 2.476562 -0.15625 2.6875 -0.210938 2.875 -0.328125 C 3.0625 -0.453125 3.210938 -0.613281 3.328125 -0.8125 C 3.441406 -1.007812 3.5 -1.21875 3.5 -1.4375 L 3.5 -2.5625 C 3.175781 -2.5625 2.84375 -2.507812 2.5 -2.40625 C 2.15625 -2.300781 1.867188 -2.132812 1.640625 -1.90625 C 1.421875 -1.675781 1.3125 -1.394531 1.3125 -1.0625 Z M 1.3125 -1.0625 "/>
</g>
<g id="glyph-3-3">
<path d="M 2.6875 0.125 C 2.25 0.125 1.851562 0.0078125 1.5 -0.21875 C 1.144531 -0.445312 0.863281 -0.75 0.65625 -1.125 C 0.457031 -1.5 0.359375 -1.898438 0.359375 -2.328125 C 0.359375 -2.753906 0.457031 -3.160156 0.65625 -3.546875 C 0.863281 -3.941406 1.144531 -4.253906 1.5 -4.484375 C 1.851562 -4.722656 2.25 -4.84375 2.6875 -4.84375 C 3.113281 -4.84375 3.5 -4.757812 3.84375 -4.59375 C 4.1875 -4.425781 4.359375 -4.15625 4.359375 -3.78125 C 4.359375 -3.632812 4.304688 -3.507812 4.203125 -3.40625 C 4.109375 -3.3125 3.988281 -3.265625 3.84375 -3.265625 C 3.695312 -3.265625 3.570312 -3.3125 3.46875 -3.40625 C 3.375 -3.507812 3.328125 -3.632812 3.328125 -3.78125 C 3.328125 -3.90625 3.363281 -4.015625 3.4375 -4.109375 C 3.519531 -4.203125 3.625 -4.257812 3.75 -4.28125 C 3.5 -4.4375 3.148438 -4.515625 2.703125 -4.515625 C 2.359375 -4.515625 2.078125 -4.398438 1.859375 -4.171875 C 1.648438 -3.953125 1.503906 -3.671875 1.421875 -3.328125 C 1.335938 -2.992188 1.296875 -2.660156 1.296875 -2.328125 C 1.296875 -1.984375 1.347656 -1.644531 1.453125 -1.3125 C 1.554688 -0.988281 1.722656 -0.71875 1.953125 -0.5 C 2.179688 -0.289062 2.472656 -0.1875 2.828125 -0.1875 C 3.160156 -0.1875 3.445312 -0.289062 3.6875 -0.5 C 3.925781 -0.71875 4.09375 -0.992188 4.1875 -1.328125 C 4.1875 -1.367188 4.210938 -1.390625 4.265625 -1.390625 L 4.390625 -1.390625 C 4.410156 -1.390625 4.429688 -1.378906 4.453125 -1.359375 C 4.472656 -1.335938 4.484375 -1.316406 4.484375 -1.296875 L 4.484375 -1.265625 C 4.367188 -0.835938 4.148438 -0.5 3.828125 -0.25 C 3.503906 0 3.125 0.125 2.6875 0.125 Z M 2.6875 0.125 "/>
</g>
<g id="glyph-3-4">
<path d="M 1.109375 -1.296875 L 1.109375 -4.28125 L 0.203125 -4.28125 L 0.203125 -4.5625 C 0.671875 -4.5625 1.015625 -4.78125 1.234375 -5.21875 C 1.460938 -5.65625 1.578125 -6.128906 1.578125 -6.640625 L 1.890625 -6.640625 L 1.890625 -4.65625 L 3.40625 -4.65625 L 3.40625 -4.28125 L 1.890625 -4.28125 L 1.890625 -1.3125 C 1.890625 -1.019531 1.9375 -0.757812 2.03125 -0.53125 C 2.132812 -0.300781 2.316406 -0.1875 2.578125 -0.1875 C 2.828125 -0.1875 3.003906 -0.304688 3.109375 -0.546875 C 3.222656 -0.785156 3.28125 -1.039062 3.28125 -1.3125 L 3.28125 -1.953125 L 3.578125 -1.953125 L 3.578125 -1.296875 C 3.578125 -1.066406 3.535156 -0.84375 3.453125 -0.625 C 3.378906 -0.40625 3.257812 -0.222656 3.09375 -0.078125 C 2.9375 0.0546875 2.738281 0.125 2.5 0.125 C 2.070312 0.125 1.734375 -0.00390625 1.484375 -0.265625 C 1.234375 -0.523438 1.109375 -0.867188 1.109375 -1.296875 Z M 1.109375 -1.296875 "/>
</g>
<g id="glyph-3-5">
<path d="M 0.359375 0 L 0.359375 -0.375 C 1.097656 -0.375 1.46875 -0.488281 1.46875 -0.71875 L 1.46875 -6.65625 C 1.46875 -6.882812 1.097656 -7 0.359375 -7 L 0.359375 -7.375 L 4.203125 -7.375 C 4.597656 -7.375 4.988281 -7.289062 5.375 -7.125 C 5.769531 -6.96875 6.09375 -6.734375 6.34375 -6.421875 C 6.601562 -6.117188 6.734375 -5.757812 6.734375 -5.34375 C 6.734375 -4.945312 6.601562 -4.597656 6.34375 -4.296875 C 6.09375 -3.992188 5.769531 -3.765625 5.375 -3.609375 C 4.988281 -3.453125 4.597656 -3.375 4.203125 -3.375 L 2.46875 -3.375 L 2.46875 -0.71875 C 2.46875 -0.488281 2.835938 -0.375 3.578125 -0.375 L 3.578125 0 Z M 2.4375 -3.6875 L 3.90625 -3.6875 C 4.300781 -3.6875 4.617188 -3.742188 4.859375 -3.859375 C 5.109375 -3.972656 5.289062 -4.148438 5.40625 -4.390625 C 5.519531 -4.628906 5.578125 -4.945312 5.578125 -5.34375 C 5.578125 -5.925781 5.445312 -6.347656 5.1875 -6.609375 C 4.9375 -6.867188 4.507812 -7 3.90625 -7 L 2.984375 -7 C 2.859375 -7 2.757812 -6.992188 2.6875 -6.984375 C 2.613281 -6.972656 2.550781 -6.941406 2.5 -6.890625 C 2.457031 -6.835938 2.4375 -6.757812 2.4375 -6.65625 Z M 2.4375 -3.6875 "/>
</g>
<g id="glyph-3-6">
<path d="M 0.28125 0 L 0.28125 -0.375 C 0.53125 -0.375 0.734375 -0.394531 0.890625 -0.4375 C 1.046875 -0.476562 1.125 -0.570312 1.125 -0.71875 L 1.125 -3.671875 C 1.125 -3.859375 1.09375 -3.992188 1.03125 -4.078125 C 0.976562 -4.171875 0.894531 -4.226562 0.78125 -4.25 C 0.675781 -4.269531 0.507812 -4.28125 0.28125 -4.28125 L 0.28125 -4.65625 L 1.828125 -4.765625 L 1.828125 -3.71875 C 1.941406 -4.03125 2.101562 -4.28125 2.3125 -4.46875 C 2.53125 -4.664062 2.789062 -4.765625 3.09375 -4.765625 C 3.3125 -4.765625 3.503906 -4.703125 3.671875 -4.578125 C 3.835938 -4.453125 3.921875 -4.285156 3.921875 -4.078125 C 3.921875 -3.953125 3.875 -3.835938 3.78125 -3.734375 C 3.6875 -3.640625 3.570312 -3.59375 3.4375 -3.59375 C 3.3125 -3.59375 3.195312 -3.640625 3.09375 -3.734375 C 3 -3.828125 2.953125 -3.941406 2.953125 -4.078125 C 2.953125 -4.273438 3.019531 -4.410156 3.15625 -4.484375 L 3.09375 -4.484375 C 2.800781 -4.484375 2.5625 -4.378906 2.375 -4.171875 C 2.195312 -3.960938 2.066406 -3.703125 1.984375 -3.390625 C 1.910156 -3.078125 1.875 -2.78125 1.875 -2.5 L 1.875 -0.71875 C 1.875 -0.488281 2.222656 -0.375 2.921875 -0.375 L 2.921875 0 Z M 0.28125 0 "/>
</g>
<g id="glyph-3-7">
<path d="M 2.6875 0.125 C 2.25 0.125 1.84375 0.0078125 1.46875 -0.21875 C 1.101562 -0.445312 0.816406 -0.753906 0.609375 -1.140625 C 0.398438 -1.523438 0.296875 -1.929688 0.296875 -2.359375 C 0.296875 -2.785156 0.390625 -3.1875 0.578125 -3.5625 C 0.773438 -3.945312 1.046875 -4.253906 1.390625 -4.484375 C 1.734375 -4.722656 2.113281 -4.84375 2.53125 -4.84375 C 2.863281 -4.84375 3.148438 -4.785156 3.390625 -4.671875 C 3.640625 -4.554688 3.84375 -4.398438 4 -4.203125 C 4.15625 -4.015625 4.273438 -3.785156 4.359375 -3.515625 C 4.441406 -3.242188 4.484375 -2.953125 4.484375 -2.640625 C 4.484375 -2.546875 4.445312 -2.5 4.375 -2.5 L 1.25 -2.5 L 1.25 -2.375 C 1.25 -1.78125 1.367188 -1.265625 1.609375 -0.828125 C 1.847656 -0.398438 2.238281 -0.1875 2.78125 -0.1875 C 3 -0.1875 3.203125 -0.234375 3.390625 -0.328125 C 3.585938 -0.429688 3.753906 -0.570312 3.890625 -0.75 C 4.023438 -0.925781 4.117188 -1.113281 4.171875 -1.3125 C 4.179688 -1.34375 4.191406 -1.363281 4.203125 -1.375 C 4.222656 -1.394531 4.25 -1.40625 4.28125 -1.40625 L 4.375 -1.40625 C 4.445312 -1.40625 4.484375 -1.363281 4.484375 -1.28125 C 4.378906 -0.875 4.15625 -0.535156 3.8125 -0.265625 C 3.476562 -0.00390625 3.101562 0.125 2.6875 0.125 Z M 1.25 -2.765625 L 3.71875 -2.765625 C 3.71875 -3.035156 3.675781 -3.304688 3.59375 -3.578125 C 3.519531 -3.859375 3.394531 -4.09375 3.21875 -4.28125 C 3.050781 -4.46875 2.820312 -4.5625 2.53125 -4.5625 C 2.125 -4.5625 1.804688 -4.367188 1.578125 -3.984375 C 1.359375 -3.597656 1.25 -3.191406 1.25 -2.765625 Z M 1.25 -2.765625 "/>
</g>
<g id="glyph-3-8">
<path d="M 0.359375 0.03125 L 0.359375 -1.734375 C 0.359375 -1.785156 0.390625 -1.8125 0.453125 -1.8125 L 0.578125 -1.8125 C 0.628906 -1.8125 0.660156 -1.785156 0.671875 -1.734375 C 0.867188 -0.679688 1.351562 -0.15625 2.125 -0.15625 C 2.46875 -0.15625 2.753906 -0.234375 2.984375 -0.390625 C 3.210938 -0.546875 3.328125 -0.785156 3.328125 -1.109375 C 3.328125 -1.335938 3.234375 -1.535156 3.046875 -1.703125 C 2.867188 -1.867188 2.660156 -1.984375 2.421875 -2.046875 L 1.703125 -2.1875 C 1.453125 -2.238281 1.226562 -2.316406 1.03125 -2.421875 C 0.832031 -2.535156 0.671875 -2.679688 0.546875 -2.859375 C 0.421875 -3.035156 0.359375 -3.242188 0.359375 -3.484375 C 0.359375 -3.804688 0.441406 -4.066406 0.609375 -4.265625 C 0.773438 -4.472656 0.988281 -4.617188 1.25 -4.703125 C 1.519531 -4.796875 1.8125 -4.84375 2.125 -4.84375 C 2.488281 -4.84375 2.8125 -4.742188 3.09375 -4.546875 L 3.40625 -4.8125 C 3.40625 -4.832031 3.421875 -4.84375 3.453125 -4.84375 L 3.53125 -4.84375 C 3.550781 -4.84375 3.566406 -4.832031 3.578125 -4.8125 C 3.597656 -4.789062 3.609375 -4.769531 3.609375 -4.75 L 3.609375 -3.34375 C 3.609375 -3.269531 3.582031 -3.234375 3.53125 -3.234375 L 3.40625 -3.234375 C 3.34375 -3.234375 3.3125 -3.269531 3.3125 -3.34375 C 3.3125 -3.71875 3.203125 -4.019531 2.984375 -4.25 C 2.773438 -4.476562 2.484375 -4.59375 2.109375 -4.59375 C 1.785156 -4.59375 1.503906 -4.53125 1.265625 -4.40625 C 1.035156 -4.289062 0.921875 -4.085938 0.921875 -3.796875 C 0.921875 -3.585938 1.003906 -3.421875 1.171875 -3.296875 C 1.335938 -3.171875 1.535156 -3.078125 1.765625 -3.015625 L 2.5 -2.890625 C 2.75 -2.828125 2.976562 -2.726562 3.1875 -2.59375 C 3.40625 -2.46875 3.578125 -2.300781 3.703125 -2.09375 C 3.828125 -1.882812 3.890625 -1.65625 3.890625 -1.40625 C 3.890625 -1.144531 3.84375 -0.914062 3.75 -0.71875 C 3.65625 -0.53125 3.53125 -0.375 3.375 -0.25 C 3.21875 -0.125 3.03125 -0.03125 2.8125 0.03125 C 2.59375 0.09375 2.363281 0.125 2.125 0.125 C 1.675781 0.125 1.289062 -0.0234375 0.96875 -0.328125 L 0.578125 0.09375 C 0.578125 0.113281 0.554688 0.125 0.515625 0.125 L 0.453125 0.125 C 0.390625 0.125 0.359375 0.09375 0.359375 0.03125 Z M 0.359375 0.03125 "/>
</g>
<g id="glyph-3-9">
<path d="M 0.328125 0 L 0.328125 -0.375 C 0.566406 -0.375 0.765625 -0.394531 0.921875 -0.4375 C 1.085938 -0.476562 1.171875 -0.570312 1.171875 -0.71875 L 1.171875 -3.671875 C 1.171875 -3.859375 1.140625 -3.992188 1.078125 -4.078125 C 1.015625 -4.171875 0.929688 -4.226562 0.828125 -4.25 C 0.722656 -4.269531 0.554688 -4.28125 0.328125 -4.28125 L 0.328125 -4.65625 L 1.890625 -4.765625 L 1.890625 -3.71875 C 2.035156 -4.03125 2.25 -4.28125 2.53125 -4.46875 C 2.8125 -4.664062 3.117188 -4.765625 3.453125 -4.765625 C 3.953125 -4.765625 4.328125 -4.644531 4.578125 -4.40625 C 4.828125 -4.164062 4.953125 -3.800781 4.953125 -3.3125 L 4.953125 -0.71875 C 4.953125 -0.570312 5.03125 -0.476562 5.1875 -0.4375 C 5.351562 -0.394531 5.554688 -0.375 5.796875 -0.375 L 5.796875 0 L 3.328125 0 L 3.328125 -0.375 C 3.578125 -0.375 3.78125 -0.394531 3.9375 -0.4375 C 4.09375 -0.476562 4.171875 -0.570312 4.171875 -0.71875 L 4.171875 -3.28125 C 4.171875 -3.632812 4.117188 -3.921875 4.015625 -4.140625 C 3.910156 -4.367188 3.703125 -4.484375 3.390625 -4.484375 C 2.972656 -4.484375 2.628906 -4.316406 2.359375 -3.984375 C 2.085938 -3.648438 1.953125 -3.273438 1.953125 -2.859375 L 1.953125 -0.71875 C 1.953125 -0.570312 2.03125 -0.476562 2.1875 -0.4375 C 2.351562 -0.394531 2.554688 -0.375 2.796875 -0.375 L 2.796875 0 Z M 0.328125 0 "/>
</g>
</g>
</defs>
<path fill-rule="nonzero" fill="rgb(100%, 100%, 100%)" fill-opacity="1" d="M 32.902344 230.410156 L 360.503906 230.410156 L 360.503906 3.609375 L 32.902344 3.609375 Z M 32.902344 230.410156 "/>
<path fill="none" stroke-width="0.833333" stroke-linecap="butt" stroke-linejoin="round" stroke="rgb(14.898682%, 14.898682%, 14.898682%)" stroke-opacity="0.14902" stroke-miterlimit="10" d="M 77.000492 451.001294 L 77.000492 72.999992 " transform="matrix(0.6, 0, 0, 0.6, -13.297952, -40.19062)"/>
<path fill="none" stroke-width="0.833333" stroke-linecap="butt" stroke-linejoin="round" stroke="rgb(14.898682%, 14.898682%, 14.898682%)" stroke-opacity="0.14902" stroke-miterlimit="10" d="M 186.199711 451.001294 L 186.199711 72.999992 " transform="matrix(0.6, 0, 0, 0.6, -13.297952, -40.19062)"/>
<path fill="none" stroke-width="0.833333" stroke-linecap="butt" stroke-linejoin="round" stroke="rgb(14.898682%, 14.898682%, 14.898682%)" stroke-opacity="0.14902" stroke-miterlimit="10" d="M 295.39893 451.001294 L 295.39893 72.999992 " transform="matrix(0.6, 0, 0, 0.6, -13.297952, -40.19062)"/>
<path fill="none" stroke-width="0.833333" stroke-linecap="butt" stroke-linejoin="round" stroke="rgb(14.898682%, 14.898682%, 14.898682%)" stroke-opacity="0.14902" stroke-miterlimit="10" d="M 404.598149 451.001294 L 404.598149 72.999992 " transform="matrix(0.6, 0, 0, 0.6, -13.297952, -40.19062)"/>
<path fill="none" stroke-width="0.833333" stroke-linecap="butt" stroke-linejoin="round" stroke="rgb(14.898682%, 14.898682%, 14.898682%)" stroke-opacity="0.14902" stroke-miterlimit="10" d="M 513.797367 451.001294 L 513.797367 72.999992 " transform="matrix(0.6, 0, 0, 0.6, -13.297952, -40.19062)"/>
<path fill="none" stroke-width="0.833333" stroke-linecap="butt" stroke-linejoin="round" stroke="rgb(14.898682%, 14.898682%, 14.898682%)" stroke-opacity="0.14902" stroke-miterlimit="10" d="M 623.003097 451.001294 L 623.003097 72.999992 " transform="matrix(0.6, 0, 0, 0.6, -13.297952, -40.19062)"/>
<path fill="none" stroke-width="0.833333" stroke-linecap="butt" stroke-linejoin="round" stroke="rgb(14.898682%, 14.898682%, 14.898682%)" stroke-opacity="0.14902" stroke-miterlimit="10" d="M 623.003097 387.999992 L 77.000492 387.999992 " transform="matrix(0.6, 0, 0, 0.6, -13.297952, -40.19062)"/>
<path fill="none" stroke-width="0.833333" stroke-linecap="butt" stroke-linejoin="round" stroke="rgb(14.898682%, 14.898682%, 14.898682%)" stroke-opacity="0.14902" stroke-miterlimit="10" d="M 623.003097 324.99869 L 77.000492 324.99869 " transform="matrix(0.6, 0, 0, 0.6, -13.297952, -40.19062)"/>
<path fill="none" stroke-width="0.833333" stroke-linecap="butt" stroke-linejoin="round" stroke="rgb(14.898682%, 14.898682%, 14.898682%)" stroke-opacity="0.14902" stroke-miterlimit="10" d="M 623.003097 261.997388 L 77.000492 261.997388 " transform="matrix(0.6, 0, 0, 0.6, -13.297952, -40.19062)"/>
<path fill="none" stroke-width="0.833333" stroke-linecap="butt" stroke-linejoin="round" stroke="rgb(14.898682%, 14.898682%, 14.898682%)" stroke-opacity="0.14902" stroke-miterlimit="10" d="M 623.003097 199.002597 L 77.000492 199.002597 " transform="matrix(0.6, 0, 0, 0.6, -13.297952, -40.19062)"/>
<path fill="none" stroke-width="0.833333" stroke-linecap="butt" stroke-linejoin="round" stroke="rgb(14.898682%, 14.898682%, 14.898682%)" stroke-opacity="0.14902" stroke-miterlimit="10" d="M 623.003097 136.001294 L 77.000492 136.001294 " transform="matrix(0.6, 0, 0, 0.6, -13.297952, -40.19062)"/>
<path fill="none" stroke-width="0.833333" stroke-linecap="butt" stroke-linejoin="round" stroke="rgb(14.898682%, 14.898682%, 14.898682%)" stroke-opacity="0.14902" stroke-miterlimit="10" d="M 623.003097 72.999992 L 77.000492 72.999992 " transform="matrix(0.6, 0, 0, 0.6, -13.297952, -40.19062)"/>
<path fill="none" stroke-width="0.833333" stroke-linecap="square" stroke-linejoin="round" stroke="rgb(14.898682%, 14.898682%, 14.898682%)" stroke-opacity="1" stroke-miterlimit="10" d="M 77.000492 451.001294 L 623.003097 451.001294 " transform="matrix(0.6, 0, 0, 0.6, -13.297952, -40.19062)"/>
<path fill="none" stroke-width="0.833333" stroke-linecap="square" stroke-linejoin="round" stroke="rgb(14.898682%, 14.898682%, 14.898682%)" stroke-opacity="1" stroke-miterlimit="10" d="M 77.000492 451.001294 L 77.000492 445.539055 " transform="matrix(0.6, 0, 0, 0.6, -13.297952, -40.19062)"/>
<path fill="none" stroke-width="0.833333" stroke-linecap="square" stroke-linejoin="round" stroke="rgb(14.898682%, 14.898682%, 14.898682%)" stroke-opacity="1" stroke-miterlimit="10" d="M 186.199711 451.001294 L 186.199711 445.539055 " transform="matrix(0.6, 0, 0, 0.6, -13.297952, -40.19062)"/>
<path fill="none" stroke-width="0.833333" stroke-linecap="square" stroke-linejoin="round" stroke="rgb(14.898682%, 14.898682%, 14.898682%)" stroke-opacity="1" stroke-miterlimit="10" d="M 295.39893 451.001294 L 295.39893 445.539055 " transform="matrix(0.6, 0, 0, 0.6, -13.297952, -40.19062)"/>
<path fill="none" stroke-width="0.833333" stroke-linecap="square" stroke-linejoin="round" stroke="rgb(14.898682%, 14.898682%, 14.898682%)" stroke-opacity="1" stroke-miterlimit="10" d="M 404.598149 451.001294 L 404.598149 445.539055 " transform="matrix(0.6, 0, 0, 0.6, -13.297952, -40.19062)"/>
<path fill="none" stroke-width="0.833333" stroke-linecap="square" stroke-linejoin="round" stroke="rgb(14.898682%, 14.898682%, 14.898682%)" stroke-opacity="1" stroke-miterlimit="10" d="M 513.797367 451.001294 L 513.797367 445.539055 " transform="matrix(0.6, 0, 0, 0.6, -13.297952, -40.19062)"/>
<path fill="none" stroke-width="0.833333" stroke-linecap="square" stroke-linejoin="round" stroke="rgb(14.898682%, 14.898682%, 14.898682%)" stroke-opacity="1" stroke-miterlimit="10" d="M 623.003097 451.001294 L 623.003097 445.539055 " transform="matrix(0.6, 0, 0, 0.6, -13.297952, -40.19062)"/>
<g fill="rgb(14.898682%, 14.898682%, 14.898682%)" fill-opacity="1">
<use xlink:href="#glyph-0-0" x="29.902048" y="246.209386"/>
</g>
<g fill="rgb(14.898682%, 14.898682%, 14.898682%)" fill-opacity="1">
<use xlink:href="#glyph-0-0" x="90.922046" y="246.209386"/>
<use xlink:href="#glyph-0-1" x="96.922046" y="246.209386"/>
<use xlink:href="#glyph-0-2" x="99.922046" y="246.209386"/>
</g>
<g fill="rgb(14.898682%, 14.898682%, 14.898682%)" fill-opacity="1">
<use xlink:href="#glyph-0-0" x="156.442045" y="246.209386"/>
<use xlink:href="#glyph-0-1" x="162.442045" y="246.209386"/>
<use xlink:href="#glyph-0-3" x="165.442045" y="246.209386"/>
</g>
<g fill="rgb(14.898682%, 14.898682%, 14.898682%)" fill-opacity="1">
<use xlink:href="#glyph-0-0" x="221.962052" y="246.209386"/>
<use xlink:href="#glyph-0-1" x="227.962052" y="246.209386"/>
<use xlink:href="#glyph-0-4" x="230.962052" y="246.209386"/>
</g>
<g fill="rgb(14.898682%, 14.898682%, 14.898682%)" fill-opacity="1">
<use xlink:href="#glyph-0-0" x="287.482041" y="246.209386"/>
<use xlink:href="#glyph-0-1" x="293.482041" y="246.209386"/>
<use xlink:href="#glyph-0-5" x="296.482041" y="246.209386"/>
</g>
<g fill="rgb(14.898682%, 14.898682%, 14.898682%)" fill-opacity="1">
<use xlink:href="#glyph-0-6" x="357.502048" y="246.209386"/>
</g>
<g fill="rgb(14.898682%, 14.898682%, 14.898682%)" fill-opacity="1">
<use xlink:href="#glyph-1-0" x="192.930134" y="260.69733"/>
</g>
<path fill="none" stroke-width="0.833333" stroke-linecap="square" stroke-linejoin="round" stroke="rgb(14.898682%, 14.898682%, 14.898682%)" stroke-opacity="1" stroke-miterlimit="10" d="M 77.000492 451.001294 L 77.000492 72.999992 " transform="matrix(0.6, 0, 0, 0.6, -13.297952, -40.19062)"/>
<path fill="none" stroke-width="0.833333" stroke-linecap="square" stroke-linejoin="round" stroke="rgb(14.898682%, 14.898682%, 14.898682%)" stroke-opacity="1" stroke-miterlimit="10" d="M 77.000492 387.999992 L 82.462732 387.999992 " transform="matrix(0.6, 0, 0, 0.6, -13.297952, -40.19062)"/>
<path fill="none" stroke-width="0.833333" stroke-linecap="square" stroke-linejoin="round" stroke="rgb(14.898682%, 14.898682%, 14.898682%)" stroke-opacity="1" stroke-miterlimit="10" d="M 77.000492 324.99869 L 82.462732 324.99869 " transform="matrix(0.6, 0, 0, 0.6, -13.297952, -40.19062)"/>
<path fill="none" stroke-width="0.833333" stroke-linecap="square" stroke-linejoin="round" stroke="rgb(14.898682%, 14.898682%, 14.898682%)" stroke-opacity="1" stroke-miterlimit="10" d="M 77.000492 261.997388 L 82.462732 261.997388 " transform="matrix(0.6, 0, 0, 0.6, -13.297952, -40.19062)"/>
<path fill="none" stroke-width="0.833333" stroke-linecap="square" stroke-linejoin="round" stroke="rgb(14.898682%, 14.898682%, 14.898682%)" stroke-opacity="1" stroke-miterlimit="10" d="M 77.000492 199.002597 L 82.462732 199.002597 " transform="matrix(0.6, 0, 0, 0.6, -13.297952, -40.19062)"/>
<path fill="none" stroke-width="0.833333" stroke-linecap="square" stroke-linejoin="round" stroke="rgb(14.898682%, 14.898682%, 14.898682%)" stroke-opacity="1" stroke-miterlimit="10" d="M 77.000492 136.001294 L 82.462732 136.001294 " transform="matrix(0.6, 0, 0, 0.6, -13.297952, -40.19062)"/>
<path fill="none" stroke-width="0.833333" stroke-linecap="square" stroke-linejoin="round" stroke="rgb(14.898682%, 14.898682%, 14.898682%)" stroke-opacity="1" stroke-miterlimit="10" d="M 77.000492 72.999992 L 82.462732 72.999992 " transform="matrix(0.6, 0, 0, 0.6, -13.297952, -40.19062)"/>
<g fill="rgb(14.898682%, 14.898682%, 14.898682%)" fill-opacity="1">
<use xlink:href="#glyph-0-0" x="13.502047" y="197.10938"/>
<use xlink:href="#glyph-0-1" x="19.502047" y="197.10938"/>
<use xlink:href="#glyph-0-2" x="22.502047" y="197.10938"/>
</g>
<g fill="rgb(14.898682%, 14.898682%, 14.898682%)" fill-opacity="1">
<use xlink:href="#glyph-0-0" x="13.502047" y="159.30938"/>
<use xlink:href="#glyph-0-1" x="19.502047" y="159.30938"/>
<use xlink:href="#glyph-0-3" x="22.502047" y="159.30938"/>
</g>
<g fill="rgb(14.898682%, 14.898682%, 14.898682%)" fill-opacity="1">
<use xlink:href="#glyph-0-0" x="13.502047" y="121.50938"/>
<use xlink:href="#glyph-0-1" x="19.502047" y="121.50938"/>
<use xlink:href="#glyph-0-4" x="22.502047" y="121.50938"/>
</g>
<g fill="rgb(14.898682%, 14.898682%, 14.898682%)" fill-opacity="1">
<use xlink:href="#glyph-0-0" x="13.502047" y="83.70938"/>
<use xlink:href="#glyph-0-1" x="19.502047" y="83.70938"/>
<use xlink:href="#glyph-0-5" x="22.502047" y="83.70938"/>
</g>
<g fill="rgb(14.898682%, 14.898682%, 14.898682%)" fill-opacity="1">
<use xlink:href="#glyph-0-6" x="22.502047" y="45.90938"/>
</g>
<g fill="rgb(14.898682%, 14.898682%, 14.898682%)" fill-opacity="1">
<use xlink:href="#glyph-0-6" x="13.502047" y="8.10937"/>
<use xlink:href="#glyph-0-1" x="19.502047" y="8.10937"/>
<use xlink:href="#glyph-0-2" x="22.502047" y="8.10937"/>
</g>
<g fill="rgb(14.898682%, 14.898682%, 14.898682%)" fill-opacity="1">
<use xlink:href="#glyph-2-0" x="5.749999" y="120.421559"/>
</g>
<path fill="none" stroke-width="0.833333" stroke-linecap="butt" stroke-linejoin="round" stroke="rgb(0%, 44.709778%, 74.119568%)" stroke-opacity="1" stroke-miterlimit="10" d="M 76.935388 136.001294 L 219.897628 136.001294 L 220.965336 143.559888 L 222.033044 156.769524 L 223.100753 169.516919 L 224.161951 181.815097 L 225.229659 193.683586 L 226.297367 205.135409 L 227.365076 216.164055 L 228.432784 226.802076 L 229.493982 237.049472 L 230.56169 246.919263 L 231.629399 256.417961 L 232.697107 265.558586 L 233.764815 274.354159 L 234.826013 282.817701 L 235.893722 290.949211 L 236.96143 298.761711 L 238.029138 306.268222 L 239.096847 313.475253 L 240.158044 320.395826 L 241.225753 327.02994 L 242.293461 333.390617 L 243.361169 339.490878 L 244.428878 345.337232 L 245.490076 350.92968 L 246.557784 356.287753 L 247.625492 361.411451 L 248.693201 366.313794 L 249.760909 370.994784 L 250.822107 375.473951 L 251.889815 379.744784 L 252.957524 383.820305 L 254.025232 387.707024 L 255.09294 391.411451 L 256.154138 394.940097 L 257.221847 398.299472 L 258.289555 401.496086 L 259.357263 404.536451 L 260.424972 407.427076 L 261.486169 410.174472 L 262.553878 412.772128 L 263.621586 415.246086 L 264.689294 417.583326 L 265.757003 419.796867 L 266.818201 421.893222 L 267.885909 423.878899 L 268.953617 425.747388 L 270.021326 427.518222 L 271.089034 429.184888 L 272.150232 430.753899 L 273.21794 432.238274 L 274.285649 433.624992 L 275.353357 434.933586 L 276.421065 436.164055 L 277.482263 437.316399 L 278.549972 438.397128 L 279.61768 439.406242 L 280.685388 440.350253 L 281.753097 441.229159 L 282.814294 442.049472 L 283.882003 442.817701 L 284.949711 443.527336 L 286.017419 444.191399 L 287.085128 444.803378 L 288.146326 445.376294 L 289.214034 445.903638 L 290.281742 446.385409 L 291.349451 446.834628 L 292.417159 447.251294 L 293.478357 447.628899 L 294.546065 447.973951 L 295.613774 448.292961 L 296.681482 448.58593 L 297.74919 448.852857 L 298.810388 449.093742 L 299.878097 449.315097 L 300.945805 449.510409 L 302.013513 449.692701 L 303.081222 449.855461 L 304.142419 449.99869 L 305.210128 450.128899 L 306.277836 450.246086 L 307.345544 450.350253 L 308.413253 450.441399 L 309.474451 450.519524 L 310.542159 450.591138 L 311.609867 450.656242 L 313.745284 450.760409 L 314.806482 450.799472 L 316.941899 450.864576 L 318.009607 450.890617 L 319.077315 450.910149 L 320.138513 450.92968 L 323.341638 450.968742 L 324.409347 450.975253 L 325.470544 450.981763 L 326.538253 450.988274 L 327.605961 450.988274 L 328.673669 450.994784 L 330.802576 450.994784 L 331.870284 451.001294 L 368.126794 451.001294 L 369.194503 450.994784 L 371.329919 450.994784 L 372.397628 450.988274 L 373.458826 450.988274 L 376.661951 450.968742 L 377.729659 450.955722 L 378.790857 450.942701 L 379.858565 450.92968 L 381.993982 450.890617 L 383.06169 450.864576 L 384.122888 450.832024 L 385.190597 450.799472 L 386.258305 450.760409 L 388.393722 450.656242 L 389.454919 450.591138 L 390.522628 450.519524 L 391.590336 450.441399 L 392.658044 450.350253 L 393.725753 450.246086 L 394.786951 450.128899 L 395.854659 449.99869 L 396.922367 449.855461 L 397.990076 449.692701 L 399.057784 449.510409 L 400.118982 449.315097 L 401.18669 449.093742 L 402.254399 448.852857 L 403.322107 448.58593 L 404.389815 448.292961 L 405.451013 447.973951 L 406.518722 447.628899 L 407.58643 447.251294 L 408.654138 446.834628 L 409.721847 446.385409 L 410.783044 445.903638 L 411.850753 445.376294 L 412.918461 444.803378 L 413.986169 444.191399 L 415.053878 443.527336 L 416.115076 442.817701 L 417.182784 442.049472 L 418.250492 441.229159 L 419.318201 440.350253 L 420.385909 439.406242 L 421.447107 438.397128 L 422.514815 437.316399 L 423.582524 436.164055 L 424.650232 434.933586 L 425.71794 433.624992 L 426.779138 432.238274 L 427.846847 430.753899 L 428.914555 429.184888 L 429.982263 427.518222 L 431.049972 425.747388 L 432.111169 423.878899 L 433.178878 421.893222 L 434.246586 419.796867 L 435.314294 417.583326 L 436.382003 415.246086 L 437.443201 412.772128 L 438.510909 410.174472 L 439.578617 407.427076 L 440.646326 404.536451 L 441.714034 401.496086 L 442.775232 398.299472 L 443.84294 394.940097 L 444.910649 391.411451 L 445.978357 387.707024 L 447.046065 383.820305 L 448.107263 379.744784 L 449.174972 375.473951 L 450.24268 370.994784 L 451.310388 366.313794 L 452.378097 361.411451 L 453.439294 356.287753 L 454.507003 350.92968 L 455.574711 345.337232 L 456.642419 339.490878 L 457.710128 333.390617 L 458.771326 327.02994 L 459.839034 320.395826 L 460.906742 313.475253 L 461.974451 306.268222 L 463.042159 298.761711 L 464.103357 290.949211 L 465.171065 282.817701 L 466.238774 274.354159 L 467.306482 265.558586 L 468.37419 256.417961 L 469.435388 246.919263 L 470.503097 237.049472 L 471.570805 226.802076 L 472.638513 216.164055 L 473.706222 205.135409 L 474.767419 193.683586 L 475.835128 181.815097 L 476.902836 169.516919 L 477.970544 156.769524 L 479.038253 143.559888 L 480.099451 136.001294 L 623.068201 136.001294 " transform="matrix(0.6, 0, 0, 0.6, -13.297952, -40.19062)"/>
<path fill="none" stroke-width="0.833333" stroke-linecap="butt" stroke-linejoin="round" stroke="rgb(85.099792%, 32.548523%, 9.799194%)" stroke-opacity="1" stroke-miterlimit="10" d="M 77.000492 136.001294 L 202.579919 136.001294 L 205.307784 136.014315 L 208.042159 136.066399 L 210.770024 136.268222 L 213.497888 137.134107 L 216.232263 139.731763 L 218.960128 145.675774 L 221.687992 159.757805 L 224.422367 184.236972 L 227.150232 212.772128 L 229.878097 239.289055 L 232.612472 262.667961 L 235.340336 283.761711 L 238.068201 303.305982 L 240.802576 321.496086 L 243.53044 338.078117 L 246.258305 352.980461 L 248.99268 366.411451 L 251.720544 378.553378 L 254.448409 389.484367 L 257.182784 399.119784 L 259.910649 407.231763 L 262.638513 413.833326 L 265.372888 419.295565 L 268.100753 424.06119 L 270.828617 428.507805 L 273.562992 432.856763 L 276.290857 436.886711 L 279.018722 440.109367 L 281.753097 442.518222 L 284.480961 444.477857 L 287.208826 445.884107 L 289.943201 446.763013 L 292.671065 447.394524 L 295.39893 447.96744 L 298.126794 448.520826 L 300.861169 448.989576 L 303.589034 449.308586 L 306.316899 449.516919 L 309.051274 449.699211 L 311.779138 449.874992 L 314.507003 450.037753 L 317.241378 450.161451 L 319.969242 450.252597 L 322.697107 450.298169 L 325.431482 450.337232 L 328.159347 450.369784 L 330.887211 450.395826 L 333.621586 450.415357 L 339.077315 450.441399 L 341.81169 450.434888 L 344.539555 450.434888 L 347.267419 450.441399 L 350.001794 450.447909 L 355.457524 450.46093 L 358.191899 450.454419 L 360.919763 450.454419 L 363.647628 450.441399 L 366.382003 450.428378 L 369.109867 450.402336 L 371.837732 450.343742 L 374.572107 450.246086 L 377.299972 450.115878 L 380.027836 449.972649 L 382.762211 449.822909 L 385.490076 449.666659 L 388.21794 449.497388 L 390.952315 449.315097 L 393.68018 449.100253 L 396.408044 448.833326 L 399.142419 448.488274 L 401.870284 448.052076 L 404.598149 447.557284 L 407.332524 447.02994 L 410.060388 446.444003 L 412.788253 445.662753 L 415.522628 444.484367 L 418.250492 442.765617 L 420.978357 440.298169 L 423.712732 436.932284 L 429.168461 428.989576 L 431.902836 425.044263 L 434.630701 420.389315 L 437.358565 414.699211 L 440.09294 407.746086 L 442.820805 399.386711 L 445.548669 389.751294 L 448.283044 378.89843 L 451.010909 366.71744 L 453.738774 353.052076 L 456.473149 337.778638 L 459.201013 320.955722 L 461.928878 302.837232 L 464.656742 283.325513 L 467.391117 262.049472 L 470.118982 238.59244 L 472.846847 212.368482 L 475.581222 184.341138 L 478.309086 160.070305 L 481.036951 145.916659 L 483.771326 139.927076 L 486.49919 137.270826 L 489.227055 136.320305 L 491.96143 136.09244 L 494.689294 136.020826 L 497.417159 136.007805 L 500.151534 136.001294 L 623.003097 136.001294 " transform="matrix(0.6, 0, 0, 0.6, -13.297952, -40.19062)"/>
<path fill="none" stroke-width="0.833333" stroke-linecap="butt" stroke-linejoin="miter" stroke="rgb(85.099792%, 32.548523%, 9.799194%)" stroke-opacity="1" stroke-miterlimit="10" d="M -3.535864 -3.533862 L 3.534448 3.536451 M -3.535864 3.536451 L 3.534448 -3.533862 " transform="matrix(0.6, 0, 0, 0.6, 78.76605, 41.40938)"/>
<path fill="none" stroke-width="0.833333" stroke-linecap="butt" stroke-linejoin="miter" stroke="rgb(85.099792%, 32.548523%, 9.799194%)" stroke-opacity="1" stroke-miterlimit="10" d="M -3.538468 -3.536822 L 3.538355 3.53349 M -3.538468 3.53349 L 3.538355 -3.536822 " transform="matrix(0.6, 0, 0, 0.6, 160.66605, 227.868187)"/>
<path fill="none" stroke-width="0.833333" stroke-linecap="butt" stroke-linejoin="miter" stroke="rgb(85.099792%, 32.548523%, 9.799194%)" stroke-opacity="1" stroke-miterlimit="10" d="M -3.534562 -3.533394 L 3.53575 3.536919 M -3.534562 3.536919 L 3.53575 -3.533394 " transform="matrix(0.6, 0, 0, 0.6, 242.56605, 219.58488)"/>
<path fill="none" stroke-width="0.833333" stroke-linecap="butt" stroke-linejoin="miter" stroke="rgb(85.099792%, 32.548523%, 9.799194%)" stroke-opacity="1" stroke-miterlimit="10" d="M -3.537166 -3.533862 L 3.533146 3.536451 M -3.537166 3.536451 L 3.533146 -3.533862 " transform="matrix(0.6, 0, 0, 0.6, 324.46605, 41.40938)"/>
<g fill="rgb(0%, 0%, 0%)" fill-opacity="1">
<use xlink:href="#glyph-3-0" x="195.165226" y="18.846503"/>
</g>
<g fill="rgb(0%, 0%, 0%)" fill-opacity="1">
<use xlink:href="#glyph-3-1" x="202.515244" y="18.846503"/>
</g>
<g fill="rgb(0%, 0%, 0%)" fill-opacity="1">
<use xlink:href="#glyph-3-2" x="208.21527" y="18.846503"/>
</g>
<g fill="rgb(0%, 0%, 0%)" fill-opacity="1">
<use xlink:href="#glyph-3-3" x="213.615286" y="18.846503"/>
</g>
<g fill="rgb(0%, 0%, 0%)" fill-opacity="1">
<use xlink:href="#glyph-3-4" x="218.415285" y="18.846503"/>
</g>
<path fill="none" stroke-width="0.833333" stroke-linecap="butt" stroke-linejoin="round" stroke="rgb(0%, 44.709778%, 74.119568%)" stroke-opacity="1" stroke-miterlimit="10" d="M 293.973149 94.074211 L 343.706222 94.074211 " transform="matrix(0.6, 0, 0, 0.6, -13.297952, -40.19062)"/>
<g fill="rgb(0%, 0%, 0%)" fill-opacity="1">
<use xlink:href="#glyph-3-5" x="195.165226" y="31.956177"/>
</g>
<g fill="rgb(0%, 0%, 0%)" fill-opacity="1">
<use xlink:href="#glyph-3-6" x="202.515244" y="31.956177"/>
</g>
<g fill="rgb(0%, 0%, 0%)" fill-opacity="1">
<use xlink:href="#glyph-3-7" x="206.74525" y="31.956177"/>
</g>
<g fill="rgb(0%, 0%, 0%)" fill-opacity="1">
<use xlink:href="#glyph-3-8" x="211.545248" y="31.956177"/>
</g>
<g fill="rgb(0%, 0%, 0%)" fill-opacity="1">
<use xlink:href="#glyph-3-7" x="215.805247" y="31.956177"/>
</g>
<g fill="rgb(0%, 0%, 0%)" fill-opacity="1">
<use xlink:href="#glyph-3-9" x="220.605245" y="31.956177"/>
</g>
<g fill="rgb(0%, 0%, 0%)" fill-opacity="1">
<use xlink:href="#glyph-3-4" x="226.305254" y="31.956177"/>
</g>
<path fill="none" stroke-width="0.833333" stroke-linecap="butt" stroke-linejoin="round" stroke="rgb(85.099792%, 32.548523%, 9.799194%)" stroke-opacity="1" stroke-miterlimit="10" d="M 293.973149 115.923169 L 343.706222 115.923169 " transform="matrix(0.6, 0, 0, 0.6, -13.297952, -40.19062)"/>
<path fill="none" stroke-width="0.833333" stroke-linecap="butt" stroke-linejoin="miter" stroke="rgb(85.099792%, 32.548523%, 9.799194%)" stroke-opacity="1" stroke-miterlimit="10" d="M -3.533219 -3.536715 L 3.537093 3.533597 M -3.533219 3.533597 L 3.537093 -3.536715 " transform="matrix(0.6, 0, 0, 0.6, 178.00665, 29.364217)"/>
</svg>
